<svg width="225" height="55" viewBox="0 0 225 55" fill="none" xmlns="http://www.w3.org/2000/svg">
<path d="M119.623 20.669C119.192 20.669 118.886 20.5436 118.682 20.2971C118.606 20.2045 118.551 20.102 118.496 20.0015C116.745 16.795 114.995 13.5885 113.245 10.382C113.202 10.303 113.157 10.2235 113.126 10.1416C113.048 9.93952 113.112 9.82118 113.384 9.75429C113.773 9.65887 114.17 9.57654 114.57 9.50965C114.893 9.45585 114.991 9.50263 115.116 9.72856C115.44 10.3109 115.756 10.8951 116.075 11.4784C117.161 13.4669 118.247 15.4558 119.332 17.4442C119.364 17.5018 119.388 17.563 119.433 17.615C119.521 17.7169 119.652 17.7151 119.736 17.6117C119.779 17.5584 119.805 17.4985 119.837 17.441C121.21 14.9263 122.582 12.4116 123.955 9.89695C123.987 9.83942 124.013 9.78048 124.047 9.72341C124.182 9.49421 124.324 9.43808 124.66 9.52181C125.048 9.6191 125.429 9.7323 125.807 9.85064C126.044 9.92502 126.095 10.0116 126.012 10.187C125.902 10.4213 125.774 10.6519 125.649 10.8825C123.998 13.9089 122.345 16.9353 120.692 19.9617C120.633 20.0698 120.577 20.1797 120.497 20.2802C120.303 20.5282 120.002 20.6615 119.623 20.669Z" fill="black"/>
<path d="M158.118 10.0471C157.701 9.86891 157.277 9.69771 156.848 9.53306C156.663 9.46196 156.572 9.48208 156.443 9.59528C156.366 9.66217 156.303 9.73747 156.238 9.81044C155.091 11.1047 153.946 12.399 152.798 13.6928C152.583 13.9356 152.472 13.9356 152.257 13.7013C152.227 13.668 152.197 13.6348 152.168 13.6016C151.093 12.3873 150.018 11.173 148.942 9.95872C148.877 9.88529 148.814 9.81091 148.742 9.74122C148.59 9.59387 148.538 9.56814 148.294 9.63877C147.834 9.77162 147.381 9.92037 146.934 10.0757C146.747 10.1411 146.722 10.231 146.819 10.3741C146.886 10.4733 146.971 10.5663 147.054 10.6594C148.383 12.1609 149.711 13.6624 151.044 15.1621C151.331 15.4843 151.478 15.8277 151.48 16.2112C151.485 17.4344 151.503 18.6572 151.516 19.8803C151.518 20.03 151.52 20.1802 151.534 20.3299C151.558 20.5895 151.629 20.6409 152.001 20.6587C152.211 20.6685 152.942 20.6549 153.097 20.6545C153.141 20.6545 153.186 20.6521 153.23 20.6503C153.572 20.6339 153.62 20.5988 153.638 20.3481C153.642 20.285 153.64 20.2218 153.64 20.1587C153.634 19.6142 153.628 19.0697 153.623 18.5252C153.614 17.7282 153.613 16.9311 153.594 16.1345C153.585 15.7921 153.7 15.4918 153.963 15.1981C155.324 13.683 156.664 12.1591 158.011 10.6379C158.094 10.5448 158.178 10.4508 158.241 10.3502C158.329 10.2085 158.302 10.1252 158.118 10.0471Z" fill="black"/>
<path d="M164.271 15.8478C164.291 17.2917 164.311 18.7362 164.332 20.1802C164.341 20.7218 164.328 20.6863 163.645 20.6849C163.309 20.6844 162.973 20.6867 162.637 20.6853C162.243 20.6839 162.192 20.6498 162.188 20.3658C162.17 19.1848 162.153 18.0041 162.139 16.823C162.117 15.0516 162.098 13.2802 162.078 11.5088C162.077 11.4611 162.077 11.413 162.075 11.3652C162.06 11.0509 161.921 10.9943 161.552 11.0013C160.982 11.0121 160.41 10.9985 159.838 10.9948C159.749 10.9943 159.659 10.992 159.57 10.9864C159.404 10.9765 159.297 10.9195 159.285 10.7936C159.266 10.6028 159.242 10.4124 159.23 10.2216C159.22 10.0541 159.213 9.8862 159.224 9.71921C159.238 9.53257 159.32 9.48158 159.575 9.46942C159.642 9.46614 159.71 9.46755 159.777 9.46802C162.129 9.48158 164.482 9.49468 166.835 9.50918C167.43 9.51292 167.463 9.53303 167.483 9.95027C167.496 10.2132 167.495 10.477 167.483 10.7399C167.471 10.9864 167.407 11.0331 167.058 11.0336C166.33 11.0345 165.602 11.0228 164.874 11.0177C164.242 11.0135 164.216 11.0308 164.223 11.4901C164.242 12.9425 164.263 14.3944 164.283 15.8468C164.279 15.8478 164.275 15.8478 164.271 15.8478Z" fill="black"/>
<path d="M136.199 10.3011C136.192 9.80527 136.435 9.56437 137.084 9.38475C137.93 9.15088 138.815 9.09802 139.708 9.10083C140.932 9.10457 142.129 9.22993 143.24 9.6177C145.369 10.3596 146.578 11.5706 146.698 13.262C146.82 14.9829 145.366 16.1532 143.745 16.7C143.585 16.7543 143.414 16.7936 143.253 16.8464C143.045 16.9152 143.015 16.9746 143.153 17.099C143.644 17.5425 143.922 18.0589 144.19 18.5809C144.308 18.811 144.442 19.0369 144.584 19.2601C144.694 19.4331 144.895 19.5239 145.165 19.5309C145.421 19.5375 145.677 19.5435 145.932 19.5524C146.213 19.5622 146.26 19.5758 146.278 19.7634C146.311 20.1025 146.324 20.4435 146.319 20.7836C146.317 20.9473 146.247 20.9917 146.016 21.0151C144.618 21.1573 143.416 20.9276 142.681 19.9481C142.483 19.6843 142.348 19.3962 142.189 19.1179C142.046 18.8686 141.921 18.6141 141.767 18.3685C141.554 18.0275 141.185 17.7969 140.707 17.6463C140.104 17.4569 139.479 17.3741 138.822 17.4106C138.496 17.4283 138.436 17.4648 138.435 17.6996C138.434 18.1833 138.441 19.0655 138.445 19.5491C138.447 19.8265 138.453 20.1039 138.452 20.3813C138.452 20.589 138.423 20.6353 138.148 20.6474C137.639 20.6704 137.128 20.6657 136.617 20.6694C136.459 20.6704 136.371 20.6081 136.358 20.4949C136.345 20.3846 136.322 20.2746 136.321 20.1642C136.301 18.5944 136.221 11.8863 136.199 10.3011ZM138.395 15.4104C138.396 15.6915 138.421 15.7112 138.804 15.7266C139.628 15.7603 140.451 15.7299 141.266 15.6438C141.861 15.5812 142.448 15.481 142.98 15.272C144.024 14.8631 144.603 14.2354 144.572 13.3808C144.534 12.3246 143.814 11.5397 142.507 11.0523C141.301 10.6019 139.995 10.5584 138.669 10.6636C138.473 10.679 138.372 10.7586 138.347 10.8947C138.335 10.9569 138.343 11.021 138.343 11.0846C138.343 11.7975 138.392 14.6812 138.395 15.4104Z" fill="black"/>
<path d="M194.676 14.1236C194.665 13.6035 194.588 13.0824 194.497 12.566C194.391 11.9645 194.149 11.3896 193.683 10.8722C192.312 9.34735 189.786 9.20702 188.178 9.75383C186.903 10.1874 186.152 10.9265 185.781 11.8779C185.48 12.6497 185.411 13.4435 185.394 14.2387C185.355 15.9961 185.331 17.7539 185.304 19.5113C185.3 19.776 185.307 20.0412 185.316 20.306C185.327 20.6222 185.424 20.6895 185.857 20.6914C186.217 20.6933 186.578 20.6933 186.938 20.6914C187.424 20.6891 187.475 20.6489 187.474 20.3008C187.473 19.1693 187.513 16.3282 187.517 16.0391C187.52 15.7421 187.523 15.445 187.535 15.1485C187.557 14.5708 187.554 13.9917 187.621 13.4168C187.67 12.9959 187.779 12.5739 187.925 12.1642C188.138 11.565 188.893 10.9653 190.129 11.0088C190.87 11.035 191.422 11.2507 191.835 11.6702C192.065 11.9036 192.181 12.1721 192.271 12.4472C192.459 13.0211 192.511 13.6068 192.522 14.1919C192.561 16.214 192.579 18.2366 192.606 20.2592C192.606 20.3233 192.602 20.3883 192.613 20.4515C192.643 20.618 192.723 20.6807 192.963 20.6853C193.436 20.6942 193.909 20.6942 194.383 20.6867C194.612 20.683 194.705 20.617 194.742 20.4543C194.764 20.3598 194.766 20.2625 194.765 20.1666C194.739 18.1524 194.722 16.1378 194.676 14.1236Z" fill="black"/>
<path d="M207.289 14.9216C207.196 14.9179 207.102 14.9207 207.007 14.9207C206.578 14.9207 204.676 14.9445 204.153 14.9478C203.852 14.9497 203.812 14.9787 203.81 15.1967C203.807 15.4647 203.814 15.7327 203.816 16.0007C203.819 16.3604 203.836 16.3749 204.347 16.3721C204.881 16.3693 205.414 16.3618 205.947 16.36C206.353 16.3586 206.44 16.4138 206.384 16.7042C206.322 17.035 206.243 17.3671 206.122 17.6889C205.95 18.1463 205.555 18.5023 204.982 18.7423C204.027 19.1431 203.005 19.3527 201.891 19.1894C200.003 18.9125 198.712 18.1445 198.156 16.8086C198.038 16.5256 197.969 16.2262 197.941 15.9315C197.822 14.6527 198.274 13.4674 199.17 12.3644C199.481 11.9808 199.884 11.6487 200.406 11.398C201.526 10.8605 202.741 10.7927 204.008 11.0472C204.756 11.1973 205.332 11.5126 205.658 12.0318C205.705 12.1062 205.767 12.1759 205.828 12.2456C205.97 12.4093 206.011 12.4252 206.258 12.3522C206.635 12.2409 207.006 12.1221 207.375 11.9995C207.658 11.9055 207.691 11.8419 207.584 11.6281C207.536 11.5304 207.478 11.434 207.414 11.3409C206.886 10.5733 206.028 10.0644 204.923 9.76177C204.102 9.53725 203.245 9.46241 202.367 9.49001C200.666 9.5438 199.263 10.0373 198.148 10.9461C197.335 11.608 196.83 12.391 196.454 13.2185C195.883 14.4758 195.73 15.751 196.166 17.048C196.941 19.3522 199.886 20.6624 202.648 20.6671C203.696 20.669 204.668 20.4585 205.597 20.131C206.878 19.6797 207.709 18.9612 208.094 17.9798C208.374 17.2632 208.445 16.5293 208.449 15.7902C208.451 15.235 208.066 14.952 207.289 14.9216Z" fill="black"/>
<path d="M179.207 10.2997C179.207 10.1257 179.209 9.95124 179.203 9.77723C179.195 9.55411 179.17 9.53072 178.865 9.52417C178.458 9.51575 178.05 9.51856 177.643 9.51856C176.997 9.51856 176.974 9.53633 176.978 9.9938C176.989 11.362 177.003 12.7302 177.012 14.0984C177.015 14.4165 176.954 14.4581 176.511 14.4581C174.695 14.4572 172.879 14.4553 171.062 14.4534C170.993 14.4534 170.923 14.4539 170.853 14.4497C170.732 14.4426 170.66 14.3987 170.659 14.307C170.658 14.2406 170.657 14.1742 170.657 14.1082C170.655 12.7564 170.654 11.4046 170.653 10.0532C170.653 9.97041 170.656 9.88716 170.646 9.80483C170.619 9.59013 170.561 9.54288 170.261 9.53493C169.878 9.52511 169.493 9.52885 169.109 9.52885C168.424 9.52885 168.422 9.52932 168.422 10.0106C168.426 13.386 168.429 16.7609 168.433 20.1362C168.433 20.211 168.43 20.2859 168.439 20.3598C168.464 20.5918 168.521 20.633 168.843 20.6344C169.228 20.6362 169.612 20.6316 169.996 20.6292C170.617 20.6259 170.661 20.5951 170.661 20.1409C170.661 18.8971 170.659 17.6529 170.658 16.4091C170.658 16.3427 170.658 16.2763 170.66 16.2103C170.663 16.0976 170.75 16.0461 170.903 16.0447C170.984 16.0438 171.066 16.0433 171.147 16.0433C172.952 16.0447 174.757 16.0461 176.561 16.048C176.62 16.048 176.677 16.0466 176.736 16.0485C176.978 16.0564 177.008 16.0775 177.024 16.2557C177.03 16.3216 177.026 16.3885 177.026 16.4545C177.033 17.6487 177.039 18.8429 177.046 20.037C177.047 20.1367 177.047 20.2363 177.06 20.335C177.089 20.5628 177.116 20.5876 177.443 20.5941C177.85 20.6021 178.258 20.596 178.665 20.5923C179.237 20.5871 179.274 20.5591 179.274 20.1498C179.275 18.4429 179.208 11.8751 179.207 10.2997Z" fill="black"/>
<path d="M111.64 9.50265C111.577 9.49938 111.513 9.50125 111.45 9.50125C109.523 9.50125 107.597 9.50125 105.671 9.50265C105.502 9.50265 105.331 9.5064 105.165 9.52464C104.638 9.58311 104.288 9.85394 104.247 10.2253C104.24 10.2927 104.239 10.361 104.239 10.4288C104.226 13.5043 104.211 16.5803 104.199 19.6558C104.199 19.7685 104.208 19.8822 104.231 19.9935C104.301 20.3308 104.599 20.5525 105.067 20.6161C105.201 20.6344 105.34 20.6395 105.477 20.64C107.413 20.6456 109.35 20.6493 111.287 20.6531C111.374 20.6531 111.462 20.6554 111.548 20.6479C111.694 20.6358 111.803 20.5446 111.808 20.4402C111.815 20.2849 111.815 20.1287 111.805 19.9729C111.792 19.7929 111.778 19.6118 111.738 19.4341C111.703 19.2802 111.609 19.2316 111.394 19.2161C111.3 19.2096 111.204 19.2124 111.109 19.2124C109.638 19.2086 108.167 19.2049 106.696 19.2012C106.611 19.2012 106.526 19.1997 106.441 19.1988C106.33 19.1969 106.263 19.1539 106.244 19.0781C106.231 19.0267 106.227 18.9734 106.227 18.921C106.23 18.0238 106.233 17.1266 106.239 16.2299C106.241 15.9778 106.288 15.9479 106.649 15.9507C107.707 15.9586 108.766 15.9689 109.824 15.9774C109.929 15.9783 110.035 15.9764 110.141 15.9727C110.289 15.9675 110.382 15.9119 110.383 15.8048C110.388 15.4656 110.396 15.126 110.383 14.7869C110.379 14.6569 110.234 14.5512 110.051 14.5399C109.959 14.5343 109.865 14.5367 109.771 14.5357C108.702 14.5264 107.633 14.518 106.564 14.5072C106.271 14.5044 106.258 14.4936 106.254 14.2897C106.251 14.1391 106.256 13.988 106.256 13.8374C106.26 12.9552 106.262 12.0734 106.267 11.1913C106.268 10.9691 106.298 10.9494 106.614 10.9443C106.678 10.9433 106.741 10.9438 106.805 10.9438C108.35 10.9433 109.895 10.9424 111.44 10.9419C111.498 10.9419 111.555 10.9419 111.616 10.9419C111.813 10.9419 111.986 10.8344 111.993 10.6945C111.993 10.6936 111.993 10.6931 111.993 10.6922C112.003 10.3834 112.01 10.0743 112.005 9.76507C112.002 9.56907 111.919 9.51622 111.64 9.50265Z" fill="black"/>
<path d="M134.518 9.50265C134.455 9.49938 134.391 9.50125 134.327 9.50125C132.401 9.50125 130.475 9.50125 128.549 9.50265C128.38 9.50265 128.209 9.5064 128.042 9.52464C127.516 9.58311 127.166 9.85394 127.125 10.2253C127.118 10.2927 127.117 10.361 127.117 10.4288C127.103 13.5043 127.089 16.5803 127.077 19.6558C127.076 19.7685 127.086 19.8822 127.109 19.9935C127.178 20.3308 127.476 20.5525 127.945 20.6161C128.079 20.6344 128.218 20.6395 128.354 20.64C130.291 20.6456 132.228 20.6493 134.165 20.6531C134.252 20.6531 134.34 20.6554 134.426 20.6479C134.572 20.6358 134.681 20.5446 134.686 20.4402C134.693 20.2849 134.693 20.1287 134.683 19.9729C134.67 19.7929 134.656 19.6118 134.616 19.4341C134.581 19.2802 134.487 19.2316 134.272 19.2161C134.178 19.2096 134.082 19.2124 133.986 19.2124C132.515 19.2086 131.044 19.2049 129.573 19.2012C129.489 19.2012 129.404 19.1997 129.319 19.1988C129.207 19.1969 129.141 19.1539 129.122 19.0781C129.109 19.0267 129.105 18.9734 129.105 18.921C129.108 18.0238 129.11 17.1266 129.117 16.2299C129.119 15.9778 129.165 15.9479 129.527 15.9507C130.585 15.9586 131.643 15.9689 132.701 15.9774C132.807 15.9783 132.913 15.9764 133.018 15.9727C133.167 15.9675 133.259 15.9119 133.261 15.8048C133.266 15.4656 133.274 15.126 133.261 14.7869C133.256 14.6569 133.112 14.5512 132.929 14.5399C132.837 14.5343 132.743 14.5367 132.649 14.5357C131.58 14.5264 130.511 14.518 129.442 14.5072C129.148 14.5044 129.136 14.4936 129.132 14.2897C129.129 14.1391 129.133 13.988 129.134 13.8374C129.137 12.9552 129.14 12.0734 129.144 11.1913C129.146 10.9691 129.176 10.9494 129.492 10.9443C129.556 10.9433 129.619 10.9438 129.682 10.9438C131.228 10.9433 132.773 10.9424 134.318 10.9419C134.376 10.9419 134.433 10.9419 134.493 10.9419C134.69 10.9419 134.864 10.8344 134.87 10.6945C134.87 10.6936 134.87 10.6931 134.87 10.6922C134.881 10.3834 134.887 10.0743 134.883 9.76507C134.88 9.56907 134.796 9.51622 134.518 9.50265Z" fill="black"/>
<path d="M181.2 9.96153C181.2 9.90353 181.198 9.84506 181.203 9.78706C181.221 9.58405 181.294 9.50687 181.577 9.49892C182.089 9.48442 182.601 9.49705 183.113 9.49986C183.294 9.50079 183.394 9.56721 183.406 9.69725C183.414 9.78846 183.428 9.87921 183.427 9.97042C183.412 13.3748 183.396 16.7786 183.379 20.183C183.377 20.5801 183.31 20.6339 182.769 20.6489C182.361 20.6601 181.952 20.6657 181.545 20.6587C181.22 20.6531 181.166 20.604 181.151 20.3734C181.146 20.2906 181.149 20.2073 181.149 20.1245C181.15 18.4471 181.2 11.6721 181.2 9.96153Z" fill="black"/>
<path d="M98.899 34.7505C98.9293 36.1814 99.0918 37.6022 99.4984 39.0084C99.5469 39.1766 99.6194 39.3431 99.7004 39.5061C99.7771 39.6594 99.8757 39.8179 100.168 39.8367C100.493 39.8573 100.639 39.6946 100.742 39.5378C100.881 39.3247 100.982 39.1 101.086 38.8774C101.212 38.6075 101.292 38.3267 101.448 38.0648C101.736 37.5792 102.27 37.2428 103.043 37.0968C104.225 36.8732 105.417 36.8589 106.606 37.0794C107.666 37.2758 108.405 37.7095 108.658 38.4166C108.844 38.9401 108.981 39.4793 109.023 40.0157C109.099 40.9876 109.034 41.9625 108.643 42.9082C108.197 43.9866 107.431 44.9612 106.062 45.6613C103.814 46.8118 101.324 46.995 98.6661 46.3503C97.2087 45.9968 96.0972 45.3423 95.0869 44.6017C93.1931 43.2144 92.1327 41.5553 91.5263 39.7688C90.6444 37.1703 90.5187 34.5485 91.2684 31.9281C91.7949 30.0886 92.948 28.4386 95.0613 27.124C95.665 26.7482 96.3439 26.4472 97.0888 26.1989C98.738 25.6496 100.421 25.6681 102.126 26.0421C104.732 26.6134 106.42 27.798 107.4 29.4484C108.194 30.7859 108.555 32.1688 108.425 33.6035C108.421 33.6526 108.421 33.7021 108.41 33.7508C108.244 34.5252 107.959 35.0894 106.248 35.2598C105.129 35.3712 104.043 35.4224 102.992 35.0856C102.773 35.0152 102.558 34.9386 102.344 34.8613C101.594 34.5899 101.106 34.1981 100.969 33.6286C100.885 33.2768 100.777 32.9264 100.644 32.5815C100.566 32.3812 100.451 32.1803 100.294 32.0016C100.08 31.7581 99.7446 31.7522 99.4734 31.972C99.191 32.2005 99.0849 32.4781 99.0572 32.7627C98.9922 33.4238 98.9501 34.0873 98.899 34.7505ZM92.0826 34.7084C92.0208 36.3061 92.1988 37.5789 92.5291 38.8422C92.8936 40.2345 93.5672 41.5584 94.6355 42.7936C95.445 43.7292 96.6247 44.3495 98.2004 44.6522C98.9469 44.7957 99.7094 44.8696 100.486 44.8368C103.186 44.7222 104.424 43.9587 105.095 42.5853C105.118 42.5386 105.14 42.4916 105.162 42.4446C105.598 41.478 105.658 40.4832 105.674 39.4863C105.677 39.2787 105.631 39.068 105.571 38.8635C105.391 38.2463 104.945 37.9993 103.987 37.9735C103.799 37.9687 103.608 37.9694 103.423 37.9868C103.021 38.0244 102.717 38.1613 102.589 38.4215C102.485 38.6315 102.416 38.8485 102.326 39.0613C102.144 39.4866 102.001 39.922 101.762 40.3331C101.484 40.8103 100.945 41.1586 100.218 41.3571C99.5858 41.5299 98.9538 41.5065 98.4029 41.2255C98.0799 41.0607 97.7789 40.8684 97.5226 40.6594C96.9114 40.1606 96.5826 39.5699 96.3487 38.9572C95.5169 36.783 95.7194 34.6147 96.4771 32.4544C96.6295 32.02 96.9284 31.6216 97.3393 31.261C97.6563 30.9831 98.0656 30.8047 98.5824 30.725C99.6045 30.5668 100.62 30.8253 101.246 31.4101C101.654 31.7908 101.856 32.2241 101.994 32.6738C102.071 32.9271 102.145 33.1806 102.233 33.4325C102.326 33.7007 102.569 33.8665 103.01 33.8825C103.161 33.8881 103.311 33.9027 103.461 33.8982C104.742 33.8609 105.304 33.4969 105.351 32.6616C105.397 31.8218 105.286 30.9893 105.004 30.1694C104.617 29.0443 103.832 28.069 102.409 27.3522C101.066 26.6754 99.1249 26.3598 97.2844 27.0732C96.7712 27.2721 96.2874 27.5173 95.8515 27.7838C94.4272 28.6546 93.5554 29.7497 92.9517 30.9458C92.283 32.2694 92.1551 33.6439 92.0826 34.7084Z" fill="#fff"/>
<path d="M160.815 43.9162C160.802 44.0556 160.777 44.181 160.783 44.3057C160.803 44.7647 160.839 45.2235 160.859 45.6826C160.865 45.8149 160.855 45.9497 160.822 46.08C160.753 46.3527 160.541 46.5548 160.098 46.6074C159.698 46.6547 159.295 46.723 158.894 46.7226C157.934 46.7213 156.965 46.7331 156.017 46.6509C154.381 46.5095 153.535 45.7613 153.095 44.8024C152.922 44.4269 152.887 44.0155 152.873 43.6191C152.712 39.1338 152.617 34.6481 152.764 30.1621C152.797 29.161 152.925 28.1589 153.082 27.1623C153.169 26.6075 153.579 26.1491 154.472 25.9634C154.613 25.9342 154.758 25.9098 154.904 25.8986C156.14 25.8039 157.377 25.7865 158.606 25.9335C159.586 26.0509 159.956 26.3208 160.069 26.9791C160.103 27.1808 160.132 27.3828 160.263 27.6009C160.324 27.5382 160.398 27.4793 160.443 27.4121C160.613 27.1578 160.762 26.8969 160.94 26.6451C161.328 26.0979 162.018 25.8182 162.912 25.7868C164.616 25.7269 166.312 25.8049 167.991 26.0073C168.082 26.0181 168.169 26.0394 168.258 26.0561C169.178 26.2281 169.631 26.5928 169.6 27.2198C169.585 27.5162 169.492 27.8245 169.331 28.1021C168.912 28.8245 168.454 29.5379 167.978 30.2453C167.457 31.0193 166.88 31.7772 166.364 32.553C166.055 33.0173 165.81 33.4997 165.549 33.9772C165.397 34.2555 165.384 34.5401 165.462 34.8348C165.828 36.2229 166.507 37.5521 167.232 38.8715C167.951 40.1787 168.734 41.4714 169.439 42.7817C169.794 43.4411 170.061 44.1221 170.319 44.8013C170.42 45.066 170.404 45.352 170.41 45.6289C170.416 45.9051 170.196 46.1026 169.841 46.2517C169.309 46.4753 168.708 46.5443 168.102 46.5892C166.868 46.6805 165.631 46.6857 164.39 46.6335C163.811 46.6091 163.351 46.4625 163.004 46.1747C162.765 45.9769 162.548 45.763 162.366 45.5411C162.025 45.1263 161.723 44.6975 161.388 44.2802C161.274 44.1378 161.193 43.9608 160.815 43.9162ZM154.073 43.5919C154.084 43.9047 154.152 44.2179 154.223 44.5279C154.27 44.7407 154.427 44.9218 154.779 44.981C155.701 45.1367 156.633 45.2082 157.578 45.0761C157.96 45.0228 158.192 44.8633 158.266 44.6122C158.295 44.5174 158.319 44.4206 158.319 44.3245C158.325 43.3819 158.335 42.439 158.324 41.4964C158.317 40.8559 158.271 40.2153 158.26 39.5748C158.255 39.285 158.441 39.1226 158.801 39.0491C159.151 38.9777 159.511 39.039 159.737 39.2466C159.884 39.3814 159.975 39.5441 160.073 39.6991C160.872 40.9604 161.645 42.2283 162.474 43.4808C162.713 43.842 163.089 44.1674 163.434 44.4944C163.671 44.7181 164.014 44.8908 164.434 44.917C165.232 44.9668 166.026 44.9138 166.774 44.7121C167.271 44.578 167.425 44.3945 167.323 44.0507C167.207 43.6609 167.078 43.2677 166.878 42.8939C166.162 41.5602 165.394 40.2383 164.684 38.9032C164.108 37.8196 163.545 36.7318 163.05 35.6314C162.471 34.3444 162.583 33.0918 163.542 31.8661C164.357 30.8235 165.055 29.7413 165.773 28.6674C166.038 28.271 166.241 27.8538 166.415 27.4358C166.576 27.0498 166.466 26.9331 165.88 26.822C164.971 26.65 164.043 26.5538 163.09 26.5751C162.533 26.5876 162.135 26.7395 161.938 27.0885C161.683 27.5417 161.416 27.9924 161.181 28.4497C160.728 29.3313 160.299 30.2182 159.846 31.0998C159.758 31.2697 159.627 31.4341 159.48 31.5857C159.304 31.7671 159.05 31.8974 158.693 31.8507C158.322 31.8023 158.128 31.6254 158.075 31.393C158.021 31.1544 157.985 30.9127 157.972 30.672C157.918 29.7054 157.887 28.7381 157.823 27.7723C157.804 27.4845 157.711 27.1982 157.638 26.9129C157.587 26.7168 157.396 26.6273 157.088 26.6332C156.663 26.6413 156.237 26.636 155.812 26.644C154.699 26.6649 154.428 26.8179 154.225 27.5316C154.204 27.6026 154.188 27.6751 154.18 27.7472C154.119 28.2895 154.025 28.8315 154.008 29.3742C153.939 31.6111 154.023 42.0931 154.073 43.5919Z" fill="#fff"/>
<path d="M198.245 42.3561C198.041 41.8789 197.533 41.5762 196.827 41.4163C196.584 41.3613 196.332 41.3202 196.079 41.2867C195.267 41.1791 194.442 41.1021 193.64 40.968C192.653 40.8033 192.39 40.4975 192.569 39.8419C192.585 39.7827 192.612 39.7249 192.638 39.6671C192.78 39.3449 193.098 39.1484 193.614 39.1108C194.036 39.0801 194.462 39.0739 194.883 39.039C195.266 39.0073 195.649 38.9652 196.022 38.9025C196.389 38.8412 196.621 38.675 196.701 38.4263C197.075 37.2616 197.016 36.0999 196.62 34.9445C196.468 34.5008 196.042 34.2315 195.323 34.1772C194.883 34.1441 194.448 34.089 194.011 34.0438C193.345 33.9748 192.925 33.7261 192.86 33.2876C192.806 32.9187 192.777 32.5397 192.845 32.1743C192.931 31.7177 193.247 31.5609 193.945 31.5021C194.365 31.4665 194.789 31.4422 195.205 31.391C196.041 31.2882 196.32 31.0855 196.444 30.5296C196.601 29.8301 196.534 29.1321 196.39 28.4368C196.317 28.0878 196.16 27.7458 195.823 27.465C194.784 26.5981 193.491 25.978 191.771 25.861C189.636 25.7158 187.499 25.7151 185.358 25.8481C184.278 25.9153 183.555 26.4552 183.465 27.0993C183.341 27.9872 183.286 28.881 183.274 29.773C183.247 31.7163 183.282 42.2394 183.343 44.1458C183.361 44.7257 183.774 45.1872 184.41 45.5631C185.583 46.258 186.976 46.6767 188.552 46.7143C190.468 46.7603 192.39 46.7369 194.309 46.7063C195.04 46.6948 195.777 46.6056 196.496 46.506C197.393 46.382 198.038 46.0246 198.269 45.4332C198.668 44.4101 198.681 43.3784 198.245 42.3561ZM195.415 43.7644C195.331 44.1768 194.987 44.3788 194.367 44.4234C194.165 44.438 193.963 44.4551 193.761 44.4575C191.528 44.4857 189.294 44.5164 187.061 44.5341C186.583 44.538 186.099 44.5136 185.627 44.4666C184.779 44.3823 184.665 44.1796 184.656 43.7961C184.615 42.1677 184.547 40.5393 184.514 38.9109C184.491 37.7767 184.608 31.5014 184.626 29.4982C184.632 28.7507 184.687 28.0025 184.756 27.2564C184.807 26.7116 185.094 26.5479 185.949 26.5312C187.185 26.5068 188.422 26.4918 189.659 26.4772C190.212 26.4706 190.767 26.4706 191.32 26.4748C191.559 26.4765 191.801 26.4838 192.036 26.5099C192.621 26.5744 192.899 26.7475 192.916 27.1338C192.944 27.7715 192.945 28.4111 192.901 29.0481C192.877 29.3993 192.709 29.4801 192.171 29.5163C191.785 29.5421 191.396 29.5389 191.01 29.5588C189.968 29.6124 189.554 29.8702 189.446 30.5397C189.286 31.5268 189.296 32.515 189.441 33.5025C189.52 34.0368 189.7 34.1737 190.511 34.2608C191.165 34.3311 191.83 34.3618 192.49 34.4081C193.212 34.4586 193.505 34.6063 193.609 35.0612C193.76 35.7199 193.785 36.3841 193.577 37.0414C193.439 37.4786 193.229 37.5872 192.561 37.6008C192.174 37.6085 191.786 37.6008 191.399 37.6099C191.16 37.6154 190.919 37.6297 190.685 37.6586C190.012 37.7422 189.682 37.9592 189.589 38.4023C189.527 38.7005 189.481 39.0032 189.482 39.3038C189.482 39.8343 189.502 40.3654 189.554 40.8949C189.613 41.4849 189.918 41.6706 190.837 41.7204C191.812 41.7734 192.787 41.8204 193.763 41.8653C195.061 41.9249 195.401 42.1471 195.453 43.0064C195.469 43.2586 195.466 43.515 195.415 43.7644Z" fill="#fff"/>
<path d="M207.836 39.3616C208.049 39.232 208.01 39.0763 207.925 38.9307C207.802 38.7203 207.682 38.5047 207.502 38.3145C206.775 37.5451 206.039 36.7795 205.282 36.0226C204.145 34.8843 203.088 33.7202 202.374 32.4352C201.846 31.4857 201.485 30.5195 201.661 29.501C201.881 28.2299 202.753 27.1839 204.348 26.4361C206.178 25.5775 208.154 25.5315 210.208 26.0794C211.407 26.3992 212.454 26.8607 213.37 27.4528C214.707 28.3163 215.776 29.3031 216.466 30.4481C216.684 30.8082 216.823 31.2011 216.882 31.5864C216.975 32.1938 216.641 32.5314 215.769 32.7505C215.161 32.9034 214.518 32.9985 213.89 33.1176C213.821 33.1308 213.746 33.1315 213.675 33.1427C212.936 33.2573 212.747 33.5398 213.159 33.9529C213.978 34.7718 214.703 35.6227 215.267 36.5301C216.193 38.0188 216.805 39.5553 216.856 41.1701C216.889 42.2279 216.48 43.2234 215.677 44.1402C214.22 45.8034 211.985 46.6861 209.084 46.7655C205.645 46.8595 203.1 45.7968 201.364 43.9176C199.902 42.3355 199.691 40.5926 200.236 38.8085C200.52 37.8767 201.327 37.4113 202.775 37.3054C203.514 37.2515 204.267 37.2595 205.011 37.2748C205.617 37.2873 206.077 37.4921 206.351 37.8565C206.648 38.2515 206.941 38.6479 207.247 39.0397C207.369 39.1961 207.499 39.3623 207.836 39.3616ZM201.101 40.2784C201.072 43.3237 204.422 45.0695 207.484 45.3851C209.775 45.6209 212.238 44.764 213.139 43.3627C213.65 42.5682 213.813 41.733 213.768 40.881C213.701 39.6228 213.347 38.4006 212.623 37.2278C211.966 36.1623 211.072 35.1824 210.131 34.2183C209.622 33.6965 209.097 33.1806 208.603 32.6529C208.145 32.1639 207.767 31.6491 207.614 31.0764C207.517 30.7138 207.561 30.3624 207.853 30.0405C208.188 29.671 208.77 29.5445 209.356 29.7371C209.626 29.8256 209.898 29.952 210.076 30.1067C210.369 30.3606 210.596 30.6476 210.829 30.9291C210.94 31.0639 210.99 31.2199 211.086 31.361C211.252 31.6066 211.377 31.6609 211.761 31.6114C212.424 31.5265 213.064 31.3958 213.662 31.1809C214.056 31.0395 214.216 30.8357 214.112 30.5609C213.99 30.2384 213.867 29.912 213.676 29.6055C212.976 28.4807 211.866 27.5626 210.237 26.9631C208.536 26.3372 206.785 26.2787 205.131 27.0289C203.397 27.8151 202.705 28.9489 202.812 30.3059C202.862 30.9305 203.141 31.5223 203.458 32.1071C204.107 33.3053 205.079 34.3928 206.136 35.452C206.893 36.2093 207.662 36.9627 208.365 37.7412C208.76 38.1787 209.061 38.6559 209.35 39.1296C209.58 39.5089 209.637 39.9168 209.539 40.325C209.388 40.9555 208.646 41.363 207.678 41.3495C206.976 41.3397 206.421 41.1419 206.011 40.7688C205.485 40.2899 205.166 39.7451 204.827 39.2052C204.669 38.9523 204.505 38.7001 204.321 38.4549C204.126 38.1951 203.809 38.0589 203.347 38.1028C203.095 38.1264 202.842 38.1432 202.591 38.1703C201.97 38.2372 201.551 38.4643 201.432 38.8715C201.296 39.3372 201.209 39.8092 201.101 40.2784Z" fill="#fff"/>
<path d="M172.495 28.1307C172.51 27.7381 172.594 27.3417 172.72 26.9572C172.902 26.3978 173.485 26.0515 174.315 25.9133C174.823 25.8283 175.361 25.7603 175.88 25.7743C176.822 25.7997 177.763 25.8753 178.698 25.9617C179.725 26.0564 180.377 26.4775 180.631 27.1125C180.816 27.5748 180.935 28.061 180.949 28.5382C181.047 31.7894 181.181 35.0414 181.157 38.2926C181.141 40.4543 180.895 42.6156 180.724 44.7762C180.693 45.1667 180.562 45.5596 180.407 45.9389C180.243 46.3381 179.838 46.5924 179.164 46.6404C178.109 46.7157 177.054 46.7798 176.01 46.6115C175.667 46.5562 175.313 46.4753 175.022 46.3493C174.504 46.1249 174.006 45.8741 173.542 45.6031C172.754 45.1423 172.381 44.5439 172.364 43.857C172.301 41.2112 172.397 30.7267 172.495 28.1307ZM173.529 42.8831C173.537 43.3387 173.619 43.7947 173.689 44.2489C173.73 44.5101 173.961 44.7027 174.374 44.7142C175.184 44.7372 175.998 44.7484 176.807 44.7247C177.289 44.7104 177.592 44.4997 177.682 44.182C177.734 44.0002 177.798 43.8173 177.813 43.6334C177.887 42.6961 177.993 41.758 178.004 40.82C178.041 37.6437 178.047 34.4673 178.055 31.291C178.058 30.2157 178.046 29.1405 178.016 28.0655C178.008 27.7712 177.931 27.4755 177.853 27.1843C177.75 26.8011 177.365 26.5848 176.801 26.4932C176.164 26.3898 175.527 26.3953 174.893 26.5033C174.415 26.5848 174.089 26.7841 173.982 27.1007C173.901 27.3407 173.844 27.588 173.831 27.8336C173.688 30.4766 173.494 40.9924 173.529 42.8831Z" fill="#fff"/>
<path d="M129.448 35.2967C129.379 37.3835 129.233 39.1056 128.935 40.8207C128.804 41.5776 128.704 42.3415 128.46 43.0837C128.081 44.2336 127.19 45.1946 125.665 45.8682C124.91 46.2016 124.08 46.4137 123.188 46.5217C121.135 46.7697 119.076 46.7352 117.02 46.5537C115.906 46.4555 114.956 46.1145 114.093 45.6463C112.523 44.7947 111.664 43.6937 111.341 42.3955C111.031 41.153 110.896 39.9001 110.883 38.644C110.867 37.0362 110.849 35.4266 110.936 33.8205C111.011 32.4384 111.136 31.0534 111.55 29.6901C111.782 28.9224 112.168 28.1941 112.888 27.5584C113.993 26.582 115.48 26.0296 117.318 25.8697C119.779 25.6555 122.148 25.8875 124.435 26.5005C125.533 26.7949 126.372 27.294 127.021 27.9381C127.902 28.8127 128.482 29.7737 128.782 30.7932C129.029 31.632 129.182 32.4854 129.303 33.3367C129.412 34.1065 129.42 34.8829 129.448 35.2967ZM126.179 36.6092C126.149 34.3604 126.033 32.4617 125.672 30.5731C125.537 29.8618 125.326 29.1582 124.82 28.511C124.126 27.6221 123.08 26.9805 121.588 26.729C120.315 26.5145 119.007 26.441 117.69 26.5719C116.555 26.6848 115.495 26.8983 114.611 27.4138C113.603 28.0015 113.047 28.7455 112.746 29.5867C112.344 30.7117 112.243 31.8615 112.14 33.0082C111.904 35.6464 111.877 38.2856 112.207 40.9221C112.295 41.6246 112.456 42.3216 112.831 42.9876C113.51 44.1942 114.875 44.8992 116.757 45.1545C118.224 45.3534 119.717 45.3576 121.199 45.1716C123.438 44.8905 124.916 44.058 125.494 42.601C125.678 42.1374 125.805 41.6602 125.888 41.184C126.172 39.5486 126.176 37.9049 126.179 36.6092Z" fill="#fff"/>
<path d="M116.432 35.692C116.5 34.4489 116.553 33.2994 116.634 32.151C116.66 31.7891 116.748 31.4282 116.839 31.0698C116.882 30.8984 116.984 30.7316 117.084 30.5689C117.6 29.7239 118.89 29.5943 119.797 29.743C120.317 29.8284 120.642 30.0858 120.907 30.3714C121.29 30.7842 121.415 31.2488 121.459 31.7184C121.548 32.655 121.632 33.5927 121.663 34.5304C121.701 35.6798 121.707 36.8303 121.679 37.9801C121.663 38.6357 121.588 39.293 121.468 39.9436C121.409 40.2627 121.235 40.5838 121.026 40.8778C120.695 41.3435 120.082 41.5689 119.297 41.5821C119.029 41.5867 118.753 41.5936 118.493 41.5605C117.744 41.4654 117.261 41.1568 116.977 40.7012C116.654 40.1815 116.555 39.6329 116.53 39.0819C116.477 37.922 116.46 36.7603 116.432 35.692Z" fill="#fff"/>
<path d="M150.11 35.2967C150.04 37.3835 149.894 39.1056 149.596 40.8207C149.465 41.5776 149.366 42.3415 149.121 43.0837C148.743 44.2336 147.852 45.1946 146.327 45.8682C145.572 46.2016 144.742 46.4137 143.849 46.5217C141.797 46.7697 139.738 46.7352 137.682 46.5537C136.568 46.4555 135.618 46.1145 134.755 45.6463C133.184 44.7947 132.326 43.6937 132.002 42.3955C131.693 41.153 131.557 39.9001 131.545 38.644C131.529 37.0362 131.51 35.4266 131.597 33.8205C131.672 32.4384 131.798 31.0534 132.211 29.6901C132.444 28.9224 132.829 28.1941 133.549 27.5584C134.654 26.582 136.142 26.0296 137.979 25.8697C140.441 25.6555 142.809 25.8875 145.097 26.5005C146.194 26.7949 147.034 27.294 147.683 27.9381C148.564 28.8127 149.143 29.7737 149.443 30.7932C149.691 31.632 149.844 32.4854 149.964 33.3367C150.074 34.1065 150.082 34.8829 150.11 35.2967ZM146.84 36.6092C146.81 34.3604 146.695 32.4617 146.334 30.5731C146.198 29.8618 145.987 29.1582 145.482 28.511C144.787 27.6221 143.742 26.9805 142.25 26.729C140.977 26.5145 139.669 26.441 138.352 26.5719C137.217 26.6848 136.157 26.8983 135.272 27.4138C134.264 28.0015 133.709 28.7455 133.408 29.5867C133.006 30.7117 132.904 31.8615 132.802 33.0082C132.566 35.6464 132.538 38.2856 132.869 40.9221C132.957 41.6246 133.118 42.3216 133.493 42.9876C134.172 44.1942 135.537 44.8992 137.418 45.1545C138.885 45.3534 140.378 45.3576 141.861 45.1716C144.099 44.8905 145.578 44.058 146.156 42.601C146.34 42.1374 146.467 41.6602 146.549 41.184C146.833 39.5486 146.838 37.9049 146.84 36.6092Z" fill="#fff"/>
<path d="M137.093 35.692C137.162 34.4489 137.214 33.2994 137.296 32.151C137.321 31.7891 137.41 31.4282 137.501 31.0698C137.544 30.8984 137.646 30.7316 137.745 30.5689C138.262 29.7239 139.552 29.5943 140.458 29.743C140.979 29.8284 141.303 30.0858 141.569 30.3714C141.952 30.7842 142.077 31.2488 142.121 31.7184C142.209 32.655 142.294 33.5927 142.325 34.5304C142.363 35.6798 142.369 36.8303 142.341 37.9801C142.325 38.6357 142.25 39.293 142.129 39.9436C142.07 40.2627 141.896 40.5838 141.688 40.8778C141.357 41.3435 140.743 41.5689 139.959 41.5821C139.691 41.5867 139.415 41.5936 139.154 41.5605C138.405 41.4654 137.922 41.1568 137.639 40.7012C137.316 40.1815 137.216 39.6329 137.191 39.0819C137.139 37.922 137.122 36.7603 137.093 35.692Z" fill="#fff"/>
<path d="M19.3899 4.50128C21.1268 3.16429 23.1352 2.09985 25.1066 0.994349C26.156 0.405739 28.1325 0.565989 28.7493 1.48749C29.2183 2.18838 29.8822 2.80963 30.4493 3.47194C30.8526 3.94283 30.7762 4.25347 30.1696 4.56311C29.2164 5.05032 28.2721 5.55186 27.2876 5.99901C24.6287 7.2069 24.4962 8.95988 25.2544 10.5541C25.8954 11.9019 27.0073 13.0163 28.3676 13.9739C29.0169 14.4305 29.8414 14.6362 30.7124 14.6506C33.0904 14.6902 35.3033 14.1861 37.3034 13.2251C38.9976 12.4109 39.5456 11.1298 39.283 9.62317C39.1161 8.66408 39.139 8.67942 40.2974 8.95443C43.1316 9.62812 46.0224 10.1109 48.9821 10.2939C50.2469 10.372 51.4996 10.2449 52.7134 9.94815C55.5641 9.25121 58.3275 8.3777 61.0272 7.38794C62.7769 6.7464 64.1704 5.73438 65.453 4.63037C66.6101 3.63468 67.7302 2.61277 68.9084 1.63241C69.4232 1.20357 70.0177 0.826167 70.6173 0.46657C71.5756 -0.108685 72.6588 -0.13935 73.6738 0.304828C74.5843 0.703006 75.4585 1.18033 76.2422 1.71651C77.5465 2.60832 78.5526 3.70838 79.4708 4.84851C79.9627 5.45888 79.8493 5.84173 79.1318 6.33685C78.6724 6.65391 78.1875 6.95068 77.7492 7.28505C76.6462 8.12592 76.1658 9.15673 76.5111 10.329C76.8756 11.5676 77.3465 12.7888 77.8218 14.0051C77.9811 14.4122 78.2831 14.7876 78.5443 15.1675C79.279 16.2374 80.489 16.6281 81.9832 16.5683C82.9026 16.5312 83.7519 16.2893 84.5752 15.9737C86.0458 15.4099 86.6906 15.6161 87.2265 16.8196C87.8076 18.1259 88.0172 19.4826 87.9337 20.8528C87.7776 23.4194 87.5782 25.9846 87.3482 28.5477C87.2175 30.0069 86.8359 31.4443 86.0706 32.7813C84.3248 35.8321 82.5796 38.886 80.6852 41.882C79.0681 44.4387 76.852 46.6735 73.8242 48.3433C72.5874 49.0254 71.3035 49.6778 69.9514 50.2061C66.1055 51.7088 62.1263 52.9711 58.0389 54.0321C53.5525 55.1964 49.0152 55.2548 44.4257 54.5035C42.8493 54.2453 42.3504 53.5543 42.8219 52.3602C43.1303 51.5792 43.4145 50.7898 43.6362 49.9914C43.7643 49.53 43.8165 49.0408 43.7796 48.5699C43.6814 47.3239 42.8735 46.4108 41.3813 45.9429C39.8718 45.4695 38.2789 45.2509 36.6471 45.3741C34.3736 45.5462 32.6418 46.4449 31.3547 47.8828C31.0552 48.2177 30.8131 48.5832 30.5366 48.9305C30.1855 49.3712 29.9319 49.4894 29.2966 49.338C28.7168 49.2 28.1236 49.019 27.6323 48.7509C26.2204 47.9813 24.8269 47.1874 23.4824 46.349C21.9309 45.382 20.3832 44.4041 18.9337 43.3486C16.0696 41.2632 13.9618 38.7554 12.5721 35.9128C11.0722 32.8451 9.94508 29.6834 9.44681 26.4208C8.76567 21.9607 9.34868 17.6179 11.8802 13.5065C12.3593 12.7285 12.7633 11.9222 13.1889 11.1249C14.2447 9.14635 15.8013 7.42801 17.6925 5.88278C18.257 5.42178 18.8241 4.96227 19.3899 4.50128ZM32.4194 26.8962C31.5949 27.4971 30.9813 28.1288 30.5308 28.8534C30.1919 29.3985 30.0351 29.9792 30.1364 30.5777C30.3722 31.975 31.1126 33.1884 32.4366 34.1672C34.4667 35.6684 36.8994 36.1749 39.6411 35.9054C41.8145 35.6917 43.3036 34.7613 44.1561 33.2289C44.9953 31.7208 44.9118 30.2339 43.8968 28.7639C43.2768 27.8661 42.7786 26.9174 42.2262 25.9915C42.128 25.8268 42.0414 25.6571 41.935 25.4954C41.2583 24.4675 40.3854 24.1144 38.9186 24.3162C38.3451 24.3953 37.7647 24.5021 37.2282 24.6738C35.4587 25.2401 33.8505 26.0246 32.4194 26.8962ZM77.3726 35.3257C77.8906 34.8909 78.4653 34.4655 78.9553 33.9877C80.8375 32.1526 80.3985 29.5029 77.9422 28.1446C77.1668 27.7153 76.2614 27.414 75.3814 27.1148C74.2262 26.7216 73.0487 26.7666 71.8833 27.1464C69.1747 28.0294 66.4183 30.4011 66.4591 33.3184C66.4757 34.5214 66.995 35.4587 68.3043 36.1586C70.6466 37.4105 73.403 37.5297 75.7217 36.3757C76.3079 36.0844 76.8081 35.6892 77.3726 35.3257ZM59.3941 48.2701C60.1778 47.7671 60.6124 47.1038 60.8125 46.3544C61.2802 44.6054 61.1553 42.8747 60.4155 41.1811C60.132 40.5311 59.7159 39.9277 59.0207 39.4766C57.6024 38.5556 55.6985 38.4438 54.04 39.2842C51.8564 40.3902 50.4323 41.9962 49.6129 43.8862C49.091 45.0907 49.4307 46.2466 50.7241 47.1097C51.9016 47.8952 53.183 48.5867 54.6555 48.9982C56.4026 49.4859 57.9917 49.1971 59.3941 48.2701ZM63.5867 24.4126C63.8339 24.2192 64.0977 24.0362 64.3265 23.8304C66.4616 21.9083 66.4534 19.5361 64.9904 17.9102C64.689 17.5753 64.3749 17.2469 64.0812 16.9081C63.0783 15.7536 61.6255 15.1789 59.8981 15.0097C58.6149 14.8841 57.3514 15.0196 56.321 15.6765C54.7899 16.6519 53.8469 17.9112 53.6812 19.4653C53.4219 21.9014 55.3067 24.2539 58.2389 25.1392C60.1925 25.7283 62.032 25.669 63.5867 24.4126ZM20.3202 33.6043C21.6346 32.5236 22.8841 31.2969 23.8686 29.9188C24.256 29.3762 24.4694 28.7861 24.4803 28.1589C24.4975 27.1202 23.9801 26.267 22.8198 25.758C21.0019 24.9607 19.0426 24.6466 16.9826 25.0967C15.3483 25.4538 14.2505 26.2719 13.7261 27.5441C13.0965 29.0706 13.2036 30.5995 13.7401 32.113C13.9465 32.6952 14.2702 33.2729 14.6767 33.7878C15.3725 34.6688 16.4054 34.9423 17.7116 34.7148C18.6801 34.5451 19.4982 34.1638 20.3202 33.6043Z" fill="#A67C52"/>
<path d="M28.3683 11.4281C27.9331 10.973 27.4558 10.5377 27.0761 10.056C26.7906 9.6939 26.5746 9.28386 26.4255 8.87431C26.1879 8.22238 26.4071 7.65009 27.1704 7.26824C28.4728 6.6173 29.7809 5.97181 31.1011 5.34313C31.9161 4.95485 32.7316 5.11511 33.5256 5.41832C35.834 6.29926 36.9797 7.86228 37.657 9.68994C37.7602 9.96892 37.7799 10.2751 37.7749 10.5679C37.7647 11.1555 37.4582 11.623 36.7388 11.8826C35.1586 12.453 33.5039 12.8096 31.7612 12.8917C30.7328 12.9402 29.8726 12.6473 29.1762 12.0607C28.9182 11.8436 28.6627 11.6249 28.4059 11.4068C28.3931 11.4137 28.381 11.4212 28.3683 11.4281Z" fill="#534741"/>
<path d="M33.3217 47.8408C34.3004 47.3145 35.1892 47.0271 36.1768 47.0044C37.5659 46.9722 38.9237 47.1439 40.2057 47.5732C41.6584 48.0599 42.0974 48.6357 41.8005 49.8307C41.5915 50.6736 41.2513 51.4991 40.9148 52.3192C40.6434 52.9795 40.2076 53.2466 39.09 53.21C38.6 53.1937 38.0883 53.1279 37.6334 52.9904C36.2998 52.5878 34.9847 52.1486 33.6753 51.7004C33.3338 51.5832 33.0114 51.4066 32.7304 51.2137C31.9556 50.6815 31.7771 50.1077 32.2193 49.3771C32.5634 48.8068 33.0075 48.2731 33.3217 47.8408Z" fill="#534741"/>
<path d="M79.0987 7.67233C79.4325 7.47448 79.6804 7.31373 79.9461 7.17375C80.5221 6.87005 80.9783 6.94968 81.3256 7.427C81.555 7.74257 81.7378 8.07794 81.9526 8.40044C82.9727 9.93082 83.9934 11.4612 85.0212 12.9886C85.5099 13.7152 85.4334 13.9314 84.5229 14.3578C83.7819 14.7045 82.9867 14.9113 82.1214 14.9325C81.2071 14.9553 80.4444 14.7085 79.971 14.0813C79.6779 13.693 79.4122 13.2824 79.2267 12.8575C78.8432 11.9781 78.5297 11.0803 78.1728 10.194C77.7026 9.02961 77.946 8.39103 79.0987 7.67233Z" fill="#534741"/>
<path d="M32.8094 32.533C32.1486 31.9374 31.7077 31.153 31.5076 30.2878C31.3872 29.7655 31.6376 29.3095 31.9868 28.8717C32.5125 28.2124 33.2713 27.7553 34.1098 27.372C34.9668 26.9807 35.8245 26.5841 36.7191 26.2502C37.2912 26.0365 37.9214 25.898 38.5446 25.7882C39.3557 25.6452 40.019 25.8995 40.3847 26.4629C41.2252 27.7593 42.0834 29.0532 42.7971 30.3922C43.5241 31.7559 42.7888 33.3041 41.2653 33.9466C41.1372 34.0005 41.0066 34.0594 40.8677 34.0876C38.1393 34.6436 35.0535 34.3453 32.8094 32.533Z" fill="#534741"/>
<path d="M76.2327 34.1905C75.9306 34.4046 75.6541 34.647 75.3228 34.829C73.31 35.934 70.3949 35.7832 68.6095 34.4511C68.3005 34.2201 68.0552 33.8363 68.0163 33.5064C67.8519 32.1259 68.089 30.8196 69.6099 29.8753C70.1782 29.5226 70.7447 29.1611 71.3608 28.8638C72.0127 28.5492 72.7441 28.5106 73.4724 28.7317C74.3167 28.988 75.1609 29.2447 75.995 29.5187C76.8106 29.7868 77.3847 30.2587 77.7848 30.8661C78.3366 31.7045 78.2321 32.4924 77.4452 33.2047C77.0642 33.5494 76.65 33.8714 76.2511 34.2038C76.2441 34.1999 76.2384 34.1949 76.2327 34.1905Z" fill="#534741"/>
<path d="M57.8158 41.1153C58.0331 41.4338 58.3033 41.7376 58.4588 42.0729C59.0086 43.263 59.2514 44.4936 59.108 45.7594C58.9507 47.1503 57.6113 47.9447 55.8183 47.6835C54.6466 47.5129 53.6296 47.0469 52.6688 46.5226C50.8235 45.516 50.5527 44.6227 51.7207 43.1057C52.2865 42.3712 52.9307 41.6495 53.6914 41.0352C54.9632 40.0083 56.5256 40.0909 57.8158 41.1153Z" fill="#534741"/>
<path d="M56.5141 22.5108C55.5838 21.7921 55.1257 20.834 55.0327 19.7953C54.9141 18.4682 55.7711 17.4275 57.1519 16.777C58.5339 16.1261 60.0816 16.2883 61.3916 16.9887C62.7667 17.7238 63.7377 18.7852 64.2755 20.0015C64.8088 21.2079 64.2105 22.2872 63.1445 23.1919C61.867 24.2766 60.7175 24.4552 58.9602 23.8957C58.0255 23.598 57.2156 23.1588 56.5141 22.5108Z" fill="#534741"/>
<path d="M19.4721 32.6393C18.9668 33.0034 18.4112 33.2769 17.737 33.4134C17.0444 33.5539 16.4455 33.4456 15.9867 33.0286C15.7064 32.7744 15.4413 32.4855 15.2858 32.1773C14.5932 30.8023 14.5563 29.3901 14.9857 27.9616C15.2336 27.1385 15.9211 26.679 16.9635 26.5148C18.6883 26.2428 20.2864 26.5757 21.7678 27.2246C22.7287 27.6455 23.0224 28.3801 22.5165 29.167C21.9844 29.9935 21.3027 30.7647 20.6406 31.5368C20.3023 31.931 19.8646 32.2738 19.4721 32.6393Z" fill="#534741"/>
</svg>



